<svg id="Capa_1" enable-background="new 0 0 512 512" height="512" viewBox="0 0 512 512" width="512" xmlns="http://www.w3.org/2000/svg"><g><g><path d="m121.186 61.893v391.198c0 9.292-7.531 16.823-16.823 16.823h-32.399c-9.292 0-16.833-7.531-16.833-16.823v-391.198c0-9.292 7.541-16.833 16.833-16.833h32.399c9.292 0 16.823 7.541 16.823 16.833z" fill="#4a80aa"/><path d="m55.131 273.634h66.055v68.98h-66.055z" fill="#407093"/><path d="m98.101 469.91h-26.136c-9.292 0-16.833-7.531-16.833-16.823v-391.198c0-9.292 7.541-16.833 16.833-16.833h26.135c-9.292 0-16.823 7.541-16.823 16.833v391.198c.001 9.293 7.532 16.823 16.824 16.823z" fill="#407093"/><path d="m456.865 61.893v391.198c0 9.292-7.531 16.823-16.823 16.823h-32.399c-9.292 0-16.833-7.531-16.833-16.823v-391.198c0-9.292 7.541-16.833 16.833-16.833h32.399c9.293 0 16.823 7.541 16.823 16.833z" fill="#4a80aa"/><path d="m390.81 273.634h66.055v68.98h-66.055z" fill="#407093"/><path d="m433.78 469.91h-26.135c-9.292 0-16.833-7.531-16.833-16.823v-391.198c0-9.292 7.541-16.833 16.833-16.833h26.135c-9.292 0-16.823 7.541-16.823 16.833v391.198c0 9.293 7.531 16.823 16.823 16.823z" fill="#407093"/><path d="m509.301 139.637v105.047c0 28.959-23.478 52.437-52.436 52.437h-37.437l-23.63-21.914-45.464 21.914h-121.366l-17.241-21.26-51.863 21.26h-104.729c-5.326 0-10.467-.793-15.309-2.277-10.745-3.271-.041-38.881-6.637-47.649s-30.491 9.306-30.491-2.51v-105.048c0-28.958 23.478-52.436 52.436-52.436h37.437l16.363 24.936 52.731-24.936h121.366l19.402 18.401 49.702-18.401h104.728c5.326 0 10.467.793 15.309 2.277 12.308 3.746 3.127 26.31 9.757 37.036 4.947 8.002 27.372 3.026 27.372 13.123z" fill="#e28086"/><path d="m100.425 297.114h-45.292c-5.324 0-10.464-.794-15.306-2.27-16.578-16.578-7.291-38.173-7.291-61.808l-29.832 7.323v-100.728c0-28.947 23.482-52.429 52.429-52.429h45.293c-28.963 0-52.429 23.482-52.429 52.429v105.054c0 28.963 23.466 52.429 52.428 52.429z" fill="#dd636e"/><g><g><path d="m161.666 87.201-107.211 182.713-14.629 24.93c-21.49-6.541-37.128-26.527-37.128-50.159v-4.326l45.297-77.192 44.196-75.317.381-.649z" fill="#f9f6f9"/></g><g><path d="m352.137 87.201-123.169 209.92h-69.105l123.169-209.92z" fill="#f9f6f9"/></g><g><path d="m509.301 139.637v4.326l-89.873 153.157h-69.094l121.84-207.643c21.489 6.542 37.127 26.528 37.127 50.16z" fill="#f9f6f9"/></g></g><path d="m47.996 244.685c0 9.148 2.338 17.75 6.459 25.229l-14.629 24.93c-21.49-6.541-37.128-26.527-37.128-50.159v-4.326l45.297-77.192v81.518z" fill="#dddaec"/><path d="m100.422 87.201c-2.802 0-5.553.216-8.231.649l.381-.649z" fill="#dddaec"/><path d="m0 460.329c0-24.551 19.902-44.453 44.453-44.453 19.788 0 36.548 12.933 42.309 30.805 5.761-17.872 22.521-30.805 42.309-30.805s36.548 12.933 42.309 30.805c5.761-17.872 22.521-30.805 42.309-30.805s36.548 12.933 42.309 30.805c5.761-17.872 22.521-30.805 42.309-30.805s36.548 12.933 42.309 30.805c5.761-17.872 22.521-30.805 42.309-30.805s36.548 12.933 42.309 30.805c5.761-17.872 22.521-30.805 42.309-30.805 24.551 0 44.453 19.902 44.453 44.453v24.615h-511.996z" fill="#a2e19f"/><path d="m149.952 421.069c-14.031 7.488-23.582 22.255-23.582 39.268v24.607h-126.37v-24.607c0-24.554 19.903-44.458 44.458-44.458 19.785 0 36.549 12.941 42.303 30.808 5.767-17.867 22.518-30.808 42.316-30.808 7.541 0 14.648 1.879 20.875 5.19z" fill="#97cf92"/></g><g><path d="m229.563 42.324-70.488 122.089c-11.75 20.352 2.938 45.791 26.437 45.791h140.976c23.5 0 38.187-25.439 26.437-45.791l-70.488-122.089c-11.75-20.352-41.124-20.352-52.874 0z" fill="#ffe07d"/><path d="m268.514 29.704c-5.563 2.472-10.498 6.676-13.928 12.62l-70.485 122.086c-11.754 20.346 2.936 45.792 26.434 45.792h-25.023c-23.498 0-38.189-25.446-26.445-45.792l70.495-122.087c8.314-14.412 25.477-18.625 38.952-12.619z" fill="#f1cb86"/><g fill="#407093"><path d="m256 147.872c-8.534 0-15.453-6.918-15.453-15.453v-49.003c0-8.534 6.918-15.453 15.453-15.453 8.534 0 15.453 6.918 15.453 15.453v49.004c0 8.534-6.919 15.452-15.453 15.452z"/><path d="m256 189.08c-8.534 0-15.453-6.918-15.453-15.453 0-8.534 6.918-15.453 15.453-15.453 8.534 0 15.453 6.918 15.453 15.453 0 8.535-6.919 15.453-15.453 15.453z"/></g></g></g></svg>