<?xml version="1.0" encoding="UTF-8"?>
<svg xmlns="http://www.w3.org/2000/svg" xmlns:xlink="http://www.w3.org/1999/xlink" viewBox="0 0 32 32" width="32px" height="32px">
<g id="surface23321336">
<path style=" stroke:none;fill-rule:nonzero;fill:rgb(20.392157%,59.607846%,85.882354%);fill-opacity:1;" d="M 3.253906 9.152344 C 1.835938 9.152344 1.203125 9.699219 1.203125 11.410156 C 1.203125 12.539062 1.363281 13.171875 1.363281 14.140625 C 1.363281 14.691406 1.027344 15.269531 0 15.320312 L 0 16.6875 C 1.027344 16.710938 1.363281 17.292969 1.363281 17.84375 C 1.363281 18.8125 1.203125 19.390625 1.203125 20.523438 C 1.203125 22.230469 1.835938 22.78125 3.230469 22.78125 L 4.253906 22.78125 L 4.253906 21.570312 L 3.941406 21.570312 C 3.285156 21.570312 3.074219 21.304688 3.074219 20.441406 C 3.074219 19.578125 3.15625 18.835938 3.15625 17.867188 C 3.15625 16.65625 2.761719 16.1875 1.976562 16.003906 L 1.976562 15.921875 C 2.765625 15.738281 3.15625 15.265625 3.15625 14.058594 C 3.15625 13.113281 3.074219 12.34375 3.074219 11.480469 C 3.074219 10.617188 3.261719 10.378906 3.941406 10.378906 L 4.644531 10.378906 L 4.644531 17.917969 C 4.644531 19.523438 5.195312 20.574219 6.800781 20.574219 C 7.300781 20.574219 7.695312 20.492188 7.980469 20.386719 L 7.714844 18.679688 C 7.5625 18.71875 7.484375 18.71875 7.40625 18.71875 C 7.222656 18.71875 6.984375 18.558594 6.984375 18.0625 L 6.984375 9.152344 Z M 27.746094 9.15625 L 27.746094 10.367188 L 28.0625 10.367188 C 28.769531 10.367188 28.925781 10.601562 28.925781 11.472656 C 28.925781 12.289062 28.84375 13.101562 28.84375 14.046875 C 28.84375 15.257812 29.242188 15.726562 30.023438 15.910156 L 30.023438 15.992188 C 29.234375 16.175781 28.84375 16.648438 28.84375 17.855469 C 28.84375 18.800781 28.925781 19.566406 28.925781 20.429688 C 28.925781 21.328125 28.742188 21.5625 28.0625 21.5625 L 28.0625 21.585938 L 27.746094 21.585938 L 27.746094 22.847656 L 28.769531 22.847656 C 30.160156 22.847656 30.796875 22.296875 30.796875 20.585938 C 30.796875 19.457031 30.636719 18.878906 30.636719 17.855469 C 30.636719 17.308594 30.976562 16.726562 32 16.675781 L 32 15.3125 C 30.976562 15.277344 30.636719 14.695312 30.636719 14.144531 C 30.636719 13.121094 30.796875 12.519531 30.796875 11.417969 C 30.796875 9.707031 30.164062 9.15625 28.769531 9.15625 Z M 11.242188 12.308594 C 9.320312 12.308594 7.484375 13.914062 7.535156 16.433594 C 7.535156 19.035156 9.246094 20.558594 11.5 20.558594 C 12.445312 20.558594 13.496094 20.21875 14.3125 19.664062 L 13.519531 18.273438 C 12.941406 18.613281 12.390625 18.773438 11.8125 18.773438 C 10.761719 18.773438 9.945312 18.273438 9.734375 17.066406 L 14.496094 17.066406 C 14.523438 16.878906 14.578125 16.515625 14.578125 16.09375 C 14.605469 13.960938 13.445312 12.308594 11.242188 12.308594 Z M 18.308594 12.332031 C 16.523438 12.332031 15.3125 13.359375 15.3125 14.804688 C 15.3125 16.085938 16.445312 16.746094 17.386719 17.113281 C 18.203125 17.425781 18.992188 17.691406 18.992188 18.21875 C 18.992188 18.613281 18.679688 18.871094 17.96875 18.871094 C 17.3125 18.871094 16.652344 18.605469 15.941406 18.058594 L 14.917969 19.582031 C 15.707031 20.238281 16.910156 20.6875 17.910156 20.6875 C 20.011719 20.6875 21.144531 19.582031 21.144531 18.136719 C 21.148438 16.691406 20.015625 16.085938 18.992188 15.746094 C 18.175781 15.429688 17.441406 15.246094 17.441406 14.722656 C 17.441406 14.328125 17.757812 14.09375 18.335938 14.09375 C 18.917969 14.09375 19.441406 14.324219 20.015625 14.746094 L 21.066406 13.359375 C 20.414062 12.859375 19.519531 12.332031 18.308594 12.332031 Z M 24.691406 12.332031 C 22.910156 12.332031 21.699219 13.359375 21.699219 14.804688 C 21.699219 16.085938 22.828125 16.746094 23.773438 17.113281 C 24.589844 17.425781 25.378906 17.691406 25.378906 18.21875 C 25.378906 18.613281 25.0625 18.871094 24.355469 18.871094 C 23.699219 18.871094 23.039062 18.605469 22.328125 18.058594 L 21.277344 19.582031 C 22.070312 20.238281 23.273438 20.6875 24.273438 20.6875 C 26.375 20.6875 27.503906 19.582031 27.503906 18.136719 C 27.503906 16.691406 26.378906 16.085938 25.355469 15.746094 C 24.5625 15.429688 23.828125 15.246094 23.828125 14.722656 C 23.828125 14.328125 24.144531 14.09375 24.722656 14.09375 C 25.304688 14.09375 25.828125 14.324219 26.402344 14.746094 L 27.453125 13.359375 C 26.796875 12.859375 25.902344 12.332031 24.691406 12.332031 Z M 11.265625 14.066406 C 12.210938 14.066406 12.582031 14.722656 12.582031 15.617188 L 9.742188 15.617188 C 9.902344 14.566406 10.53125 14.066406 11.265625 14.066406 Z M 11.265625 14.066406 "/>
</g>
</svg>
