<?xml version="1.0" encoding="UTF-8"?>
<svg xmlns="http://www.w3.org/2000/svg" xmlns:xlink="http://www.w3.org/1999/xlink" viewBox="0 0 64 64" width="64px" height="64px">
<defs>
<linearGradient id="linear0" gradientUnits="userSpaceOnUse" x1="86" y1="20.65881" x2="86" y2="99.211746" gradientTransform="matrix(0.372093,0,0,0.372093,0,0)">
<stop offset="0" style="stop-color:rgb(85.09804%,96.862745%,93.333334%);stop-opacity:1;"/>
<stop offset="1" style="stop-color:rgb(17.647059%,94.509804%,60.784316%);stop-opacity:1;"/>
</linearGradient>
<linearGradient id="linear1" gradientUnits="userSpaceOnUse" x1="86" y1="12.09375" x2="86" y2="162.529251" gradientTransform="matrix(0.372093,0,0,0.372093,0,0)">
<stop offset="0" style="stop-color:rgb(49.019608%,89.019608%,76.47059%);stop-opacity:1;"/>
<stop offset="1" style="stop-color:rgb(4.313726%,63.921571%,37.64706%);stop-opacity:1;"/>
</linearGradient>
</defs>
<g id="surface23954976">
<path style=" stroke:none;fill-rule:nonzero;fill:url(#linear0);" d="M 55 28 L 55 19.507812 C 55 17.390625 53.710938 15.484375 51.742188 14.695312 L 32 6.78125 L 12.015625 14.789062 C 10.195312 15.519531 9 17.285156 9 19.25 L 9 28 L 13 29.648438 L 13 23.289062 L 16 24.648438 L 16 35.011719 L 19 36.378906 L 19 29.289062 L 22 30.648438 L 22 33.738281 L 25 35.101562 L 25 30.289062 L 28 31.648438 L 28 34.460938 L 32 36.28125 L 36 34.460938 L 36 31.648438 L 39 30.289062 L 39 35.101562 L 42 33.738281 L 42 30.648438 L 45 29.289062 L 45 36.378906 L 48 35.011719 L 48 24.648438 L 51 23.289062 L 51 29.648438 Z M 55 28 "/>
<path style=" stroke:none;fill-rule:nonzero;fill:url(#linear1);" d="M 52.996094 14.628906 L 33.992188 6.367188 C 32.726562 5.816406 31.273438 5.816406 30.007812 6.367188 L 11.003906 14.628906 C 9.179688 15.421875 8 17.222656 8 19.210938 L 8 44.96875 C 8 46.960938 9.179688 48.757812 11.003906 49.554688 L 29.207031 57.46875 C 30.09375 57.851562 31.046875 58.046875 32 58.046875 C 32.953125 58.046875 33.90625 57.851562 34.792969 57.46875 L 52.996094 49.554688 C 54.820312 48.757812 56 46.960938 56 44.96875 L 56 19.210938 C 56 17.222656 54.820312 15.421875 52.996094 14.628906 Z M 30.804688 8.199219 C 31.183594 8.035156 31.59375 7.953125 32 7.953125 C 32.40625 7.953125 32.816406 8.035156 33.195312 8.199219 L 52.195312 16.464844 C 52.289062 16.503906 52.375 16.554688 52.464844 16.601562 L 33.195312 24.980469 C 32.4375 25.308594 31.5625 25.308594 30.804688 24.980469 L 11.535156 16.601562 C 11.621094 16.554688 11.707031 16.503906 11.800781 16.464844 Z M 11.804688 47.71875 C 10.707031 47.242188 10 46.164062 10 44.96875 L 10 19.210938 C 10 18.859375 10.070312 18.515625 10.183594 18.195312 L 30.007812 26.8125 C 30.328125 26.953125 30.660156 27.054688 31 27.125 L 31 55.945312 C 30.660156 55.875 30.328125 55.773438 30.003906 55.632812 Z M 54 44.96875 C 54 46.164062 53.292969 47.242188 52.199219 47.71875 L 33.996094 55.632812 L 33.992188 55.632812 C 33.671875 55.773438 33.339844 55.875 33 55.945312 L 33 27.125 C 33.339844 27.054688 33.671875 26.953125 33.992188 26.8125 L 53.816406 18.195312 C 53.929688 18.515625 54 18.859375 54 19.210938 Z M 54 44.96875 "/>
</g>
</svg>
