<svg id="Layer_1" data-name="Layer 1" xmlns="http://www.w3.org/2000/svg" viewBox="0 0 449.64 512"><defs><style>.cls-1{fill:#003329;}.cls-2{fill:#003f33;}.cls-3{fill:#006854;}</style></defs><title>cube1</title><path class="cls-1" d="M477.7,128a23.28,23.28,0,0,0-8.52-8.52L267.64,3.12a23.27,23.27,0,0,0-23.28,0L42.82,119.48A23.28,23.28,0,0,0,34.3,128L256,256Z" transform="translate(-31.18 0)"/><path class="cls-2" d="M256,512a23.25,23.25,0,0,0,11.64-3.12L469.18,392.52a23.28,23.28,0,0,0,11.64-20.16V139.64A23.26,23.26,0,0,0,477.7,128L256,256Z" transform="translate(-31.18 0)"/><path class="cls-3" d="M244.36,508.88A23.25,23.25,0,0,0,256,512V256L34.3,128a23.26,23.26,0,0,0-3.12,11.64V372.36a23.28,23.28,0,0,0,11.64,20.16Z" transform="translate(-31.18 0)"/></svg>