<?xml version="1.0" ?><svg id="Layer_1" style="enable-background:new 0 0 91 91;" version="1.1" viewBox="0 0 91 91" xml:space="preserve" xmlns="http://www.w3.org/2000/svg" xmlns:xlink="http://www.w3.org/1999/xlink"><style type="text/css">
	.st0{fill:#C8BBDB;}
	.st1{fill:#4E7A9E;}
</style><g><g><path class="st0" d="M57.2,9.1c-0.6,1.6-0.6,3.5-0.7,5.2c-0.2,2.4-0.5,4.9-0.4,7.3c0.2,3.6,5.2,3.5,5.5,0c0.2-2.4,0-4.9-0.1-7.3    c-0.1-1.7,0-3.5-0.5-5.2C60.4,7.2,57.9,7.3,57.2,9.1L57.2,9.1z"/><path class="st0" d="M68.3,8.5c-1,1.6-0.7,4.4-0.7,6.2c0,2.4-0.6,5.8,0.3,8.1c0.6,1.7,3,1.8,3.5,0c0.7-2.3-0.1-5.7-0.2-8.1    c-0.1-1.8,0-4.7-1.1-6.2C69.6,7.8,68.7,7.8,68.3,8.5L68.3,8.5z"/><path class="st0" d="M82.9,36.6c0-3.9-0.1-7.8-0.3-11.6c-0.1-3.9-0.2-7.7-0.9-11.6c-0.3-1.6-0.3-3.8-1.6-5c-0.4-0.4-0.9-0.4-1.3,0    c-1.2,1.1-1.3,3.2-1.6,4.8c-0.6,3.9-0.7,7.8-0.8,11.8c-0.1,3.8-0.1,7.6-0.1,11.4c0,2.3-0.5,5.7,1.9,7c0,0,0,0,0-0.1    c0.9,0.5,2.1,0.5,3,0c0,0,0,0,0,0c0.2-0.1,0.3-0.2,0.5-0.4c0,0,0.1-0.1,0.1-0.1C83.4,41.4,83,38.6,82.9,36.6z"/><g><path class="st1" d="M39.6,60.8C29.7,61.9,21,68.6,17.4,78c-0.8,2.1,2.1,3.4,3.5,2c2.9-2.7,5.2-5.8,8.3-8.3     c3-2.5,6.5-3.9,10.4-4.3c6.8-0.7,13.3,2.1,17.9,6.9c-8.3,0-16.5,0.1-24.8,0.1c-4.6,0-4.6,7.1,0,7.1c10.6,0,21.3,0,31.9-0.1     c2.7,0,4.4-3,3.1-5.4C62,66.2,51,59.6,39.6,60.8z"/><path class="st1" d="M32.3,45.7c3.2-5,1.3-10.8-2.8-14.6c-1.3-1.2-2.5-1.3-3.5-0.7c-1.7-1.2-3.8-1.7-6.3-1.5     c-3.2,0.3-6,2.1-7.9,4.7c-4.2,5.8-2,14.1,4.3,17.3C22.2,53.9,28.8,51.2,32.3,45.7z M17.7,37.5c1.4-2.3,4-2.6,6.6-2.7     c0.3,0.8,0.9,1.5,2.1,1.7c2.4,0.3,2.2,4.6,1.3,6.1c-1.7,2.7-5.2,3.8-7.9,2.2C17.1,43.2,16,40.2,17.7,37.5z"/><path class="st1" d="M68.3,31.1c-1.3-1.2-2.5-1.3-3.5-0.7c-1.7-1.2-3.8-1.7-6.3-1.5c-3.2,0.3-6,2.1-7.9,4.7     c-4.2,5.8-2,14.1,4.3,17.3c6.1,3,12.7,0.3,16.2-5.2C74.4,40.7,72.4,34.9,68.3,31.1z M66.5,42.6c-1.7,2.7-5.2,3.8-7.9,2.2     c-2.6-1.6-3.7-4.5-2-7.2c1.4-2.3,4-2.6,6.6-2.7c0.3,0.8,0.9,1.5,2.1,1.7C67.6,36.8,67.4,41.1,66.5,42.6z"/></g></g></g></svg>