<svg id="Capa_1" enable-background="new 0 0 512 512" height="512" viewBox="0 0 512 512" width="512" xmlns="http://www.w3.org/2000/svg"><g><path d="m176.1 306.64-11.91-10.94c-15.1-13.86-12.63-38.29 4.91-48.86l41.9-25.24v-32.16c0-21.88-17.71-39.51-39.5-39.51h-5.19c-21.52 0-39.25 17.51-39.51 39.03l-.27 23.65c.03 3.64-.12 36.17-15.73 76.23-13.21 33.92-40.19 79.28-94.8 113.3l-.38 5.9c-1.73 27.23 7.61 53.2 26.28 73.1 13.65 14.55 30.86 24.32 49.78 28.51.55.12 1.1.24 1.65.35 8.32-68.94 30.93-121.26 49.33-154.07 12.75-22.74 25.08-39.22 33.44-49.29zm-6.84-130.23c8.28 0 15 6.72 15 15v.07c0 .06.01.12.01.17 0 8.29-6.72 15-15 15-8.29 0-15-6.71-15-15v-.07c0-.06-.01-.11-.01-.17 0-8.28 6.72-15 15-15z"/><path d="m252.93 231.36-68.34 41.18c-.39.23-.45.75-.11 1.06l55.9 51.33c8.9 8.17 22.33 8.17 31.24 0l55.89-51.33c.35-.31.28-.84-.11-1.06l-68.33-41.17c-1.89-1.15-4.25-1.15-6.14-.01z"/><path d="m291.91 347.02c-20.32 18.66-51.52 18.64-71.82 0l-21.85-20.05c-7.5 9.17-18.6 24.18-30.03 44.73-16.65 29.95-37.08 77.56-44.91 140.3h265.4c-12.24-98.64-55.63-161.4-74.94-185.04z"/><path d="m96.53 212.92c-.01-.16-.01-.32 0-.48l.28-23.84c.46-38.09 31.42-68.67 69.5-68.67h5.19c38.34 0 69.5 31.02 69.5 69.51v14.37c9.54-4.39 20.46-4.39 30 0v-14.37c0-38.5 31.17-69.51 69.5-69.51h5.18c38.1 0 69.05 30.59 69.51 68.67l.28 23.84c.01.16 0 .32 0 .48 0 .25-.26 29.89 14.13 66.18 13.58 34.25 35.02 62.69 63.98 84.98l-9.72-152.86c-3.55-55.86-27.74-108.56-68.11-148.4-41.05-40.51-94.13-62.82-149.46-62.82h-20.58c-55.33 0-108.41 22.31-149.46 62.82-40.37 39.84-64.56 92.54-68.11 148.4l-9.72 152.73c78.84-61.1 78.13-150.01 78.11-151.03z"/><path d="m496.38 408.04-.38-5.9c-54.61-34.02-81.59-79.38-94.8-113.3-15.61-40.06-15.76-72.6-15.73-76.23l-.27-23.65c-.26-21.52-17.99-39.03-39.52-39.03h-5.18c-21.74 0-39.5 17.58-39.5 39.51v32.16l41.89 25.24c17.55 10.57 20 35.01 4.91 48.86l-11.9 10.93c8.36 10.08 20.69 26.56 33.44 49.3 18.4 32.81 41.01 85.13 49.33 154.07.55-.11 1.1-.23 1.65-.35 18.92-4.19 36.13-13.96 49.78-28.51 18.67-19.9 28.01-45.86 26.28-73.1zm-138.65-216.39c0 8.29-6.71 15-15 15-8.28 0-15-6.71-15-15 0-.02.01-.04.01-.07 0-.06-.01-.11-.01-.17 0-8.28 6.72-15 15-15s15 6.72 15 15z"/></g></svg>