<svg id="Capa_1" enable-background="new 0 0 512 512" height="512" viewBox="0 0 512 512" width="512" xmlns="http://www.w3.org/2000/svg"><g><circle cx="169.264" cy="191.651" r="15"/><circle cx="342.734" cy="191.651" r="15"/><path d="m483.862 211.222c-7.291-114.706-102.295-211.222-217.573-211.222h-20.581c-115.339 0-210.284 96.573-217.572 211.222l-12.512 196.815c-3.507 55.171 39.501 103.963 98.446 103.963h284.739c56.528 0 101.147-47.596 97.564-103.964-.484-7.626-12.094-190.257-12.511-196.814zm-238.153-181.222h20.581c97.043 0 181.215 82.149 187.634 183.124l7.73 121.592c-16.983-17.069-29.597-39.269-37.635-66.341-9.453-31.835-8.516-53.759-8.819-79.536-.461-38.076-31.416-68.669-69.509-68.669h-5.181c-18.554 0-36.009 7.229-49.156 20.363-22.68 22.68-20.354 47.574-20.354 63.514-9.533-4.389-20.466-4.389-30 .003 0-15.469 2.5-40.663-20.359-63.523-13.142-13.128-30.597-20.357-49.15-20.357h-5.18c-38.079 0-69.05 30.577-69.509 68.674-.243 20.691 3.92 94.83-46.445 145.723l7.72-121.442c6.417-100.976 90.589-183.125 187.632-183.125zm-25.618 317.264c20.298 18.638 51.5 18.659 71.823-.001l21.805-20.021c33.626 42.167 55.453 101.056 66.275 154.759h-247.991c10.855-53.863 32.72-112.677 66.277-154.762zm51.532-22.099c-8.905 8.177-22.336 8.178-31.243.001-58.875-54.055-56.936-51.706-55.791-52.391 73.632-44.358 69.052-42.026 71.413-42.026 2.358 0-2.255-2.353 71.405 42.025 1 .602 2.625-1.239-55.784 52.391zm-226.059 84.774 2.189-34.433c32.772-22.106 56.644-56.37 69.276-99.6 10.38-35.522 9.448-59.311 9.77-86.707.26-21.521 17.984-39.03 39.511-39.03 6.052 0 20.403-1.13 33.123 11.576 7.459 7.459 11.567 17.38 11.567 27.934v32.163l-41.89 25.236c-17.546 10.571-20.013 35.005-4.916 48.864l11.914 10.939c-18.538 22.733-56.24 78.582-74.486 174.131-32.995-5.603-58.322-35.466-56.058-71.073zm364.812 71.073c-18.247-95.547-55.946-151.396-74.484-174.13l11.915-10.94s0-.001.001-.001c15.086-13.854 12.635-38.285-4.917-48.863l-41.892-25.238v-32.16c0-21.928 17.763-39.51 39.51-39.51h5.181c21.526 0 39.251 17.509 39.511 39.026.323 27.442-.611 51.202 9.771 86.741 12.633 43.247 36.505 77.523 69.279 99.635l2.185 34.367c2.26 35.574-23.038 65.465-56.06 71.073z"/></g></svg>