<?xml version="1.0" standalone="no"?>
<!DOCTYPE svg PUBLIC "-//W3C//DTD SVG 20010904//EN"
 "http://www.w3.org/TR/2001/REC-SVG-20010904/DTD/svg10.dtd">
<svg version="1.0" xmlns="http://www.w3.org/2000/svg"
 width="646.000000pt" height="480.000000pt" viewBox="0 0 646.000000 480.000000"
 preserveAspectRatio="xMidYMid meet">

<g transform="translate(0.000000,480.000000) scale(0.100000,-0.100000)"
fill="#000000" stroke="none">
<path d="M5040 4320 c0 -17 -7 -20 -40 -20 -33 0 -40 -3 -40 -20 0 -15 -7 -20
-25 -20 -20 0 -25 -5 -25 -25 0 -18 -5 -25 -20 -25 -19 0 -20 -7 -20 -125 0
-118 1 -125 20 -125 13 0 20 -7 20 -20 0 -15 7 -20 25 -20 18 0 25 -5 25 -20
0 -18 7 -20 60 -20 53 0 60 -2 60 -20 0 -18 7 -20 85 -20 78 0 85 -2 85 -20 0
-17 7 -20 40 -20 33 0 40 -3 40 -20 0 -13 7 -20 20 -20 20 0 20 -7 20 -440 0
-433 0 -440 20 -440 19 0 20 -7 20 -105 l0 -105 25 0 c23 0 25 -4 25 -40 0
-33 3 -40 20 -40 17 0 20 -7 20 -40 0 -33 3 -40 20 -40 15 0 20 -7 20 -25 0
-18 5 -25 20 -25 13 0 20 -7 20 -20 0 -17 7 -20 40 -20 l40 0 0 -40 0 -40 -40
0 c-33 0 -40 -3 -40 -20 0 -13 -7 -20 -20 -20 -13 0 -20 -7 -20 -20 0 -13 -7
-20 -20 -20 -17 0 -20 -7 -20 -45 0 -38 -3 -45 -20 -45 -17 0 -20 -7 -20 -40
0 -36 -2 -40 -25 -40 l-25 0 0 -105 c0 -98 -1 -105 -20 -105 -20 0 -20 -7 -20
-435 0 -428 0 -435 -20 -435 -15 0 -20 -7 -20 -25 0 -22 -4 -25 -40 -25 -33 0
-40 -3 -40 -20 0 -18 -7 -20 -85 -20 -78 0 -85 -2 -85 -20 0 -18 -7 -20 -60
-20 -53 0 -60 -2 -60 -20 0 -15 -7 -20 -25 -20 -18 0 -25 -5 -25 -20 0 -13 -7
-20 -20 -20 -19 0 -20 -7 -20 -125 0 -118 1 -125 20 -125 13 0 20 -7 20 -20 0
-15 7 -20 25 -20 20 0 25 -5 25 -25 0 -22 4 -25 40 -25 33 0 40 -3 40 -20 0
-19 7 -20 125 -20 118 0 125 1 125 20 0 18 7 20 85 20 84 0 85 0 85 25 0 23 4
25 40 25 33 0 40 3 40 20 0 17 7 20 40 20 33 0 40 3 40 20 0 13 7 20 20 20 13
0 20 7 20 20 0 17 7 20 45 20 l45 0 0 40 c0 33 3 40 20 40 17 0 20 7 20 45 0
38 3 45 20 45 17 0 20 7 20 40 0 33 3 40 20 40 20 0 20 7 20 440 0 433 0 440
20 440 18 0 20 7 20 80 0 79 0 80 25 80 23 0 25 4 25 45 0 38 3 45 20 45 13 0
20 7 20 20 0 17 7 20 40 20 33 0 40 3 40 20 0 17 7 20 40 20 33 0 40 3 40 20
0 18 7 20 85 20 78 0 85 2 85 20 0 17 7 20 40 20 33 0 40 3 40 20 0 15 7 20
25 20 l25 0 0 170 0 170 -25 0 c-18 0 -25 5 -25 20 0 17 -7 20 -40 20 -33 0
-40 3 -40 20 0 19 -7 20 -105 20 -98 0 -105 1 -105 20 0 17 -7 20 -40 20 -33
0 -40 3 -40 20 0 13 -7 20 -20 20 -15 0 -20 7 -20 25 0 18 -5 25 -20 25 -17 0
-20 7 -20 40 0 36 -2 40 -25 40 -25 0 -25 1 -25 85 0 78 -2 85 -20 85 -20 0
-20 7 -20 435 0 428 0 435 -20 435 -17 0 -20 7 -20 40 0 33 -3 40 -20 40 -17
0 -20 7 -20 45 0 38 -3 45 -20 45 -13 0 -20 7 -20 20 0 13 -7 20 -20 20 -13 0
-20 7 -20 20 0 15 -7 20 -25 20 -18 0 -25 5 -25 20 0 13 -7 20 -20 20 -13 0
-20 7 -20 20 0 17 -7 20 -40 20 -36 0 -40 3 -40 25 0 23 -4 25 -40 25 -33 0
-40 3 -40 20 0 18 -7 20 -85 20 -78 0 -85 2 -85 20 0 19 -7 20 -125 20 -118 0
-125 -1 -125 -20z"/>
<path d="M1290 4300 c0 -19 -7 -20 -105 -20 l-105 0 0 -25 c0 -22 -4 -25 -40
-25 -33 0 -40 -3 -40 -20 0 -17 -7 -20 -40 -20 -33 0 -40 -3 -40 -20 0 -15 -7
-20 -25 -20 -18 0 -25 -5 -25 -20 0 -13 -7 -20 -20 -20 -13 0 -20 -7 -20 -20
0 -13 -7 -20 -20 -20 -13 0 -20 -7 -20 -20 0 -13 -7 -20 -20 -20 -17 0 -20 -7
-20 -45 0 -38 -3 -45 -20 -45 -18 0 -20 -7 -20 -60 0 -53 -2 -60 -20 -60 -20
0 -20 -7 -20 -420 l0 -420 -25 0 c-25 0 -25 -1 -25 -80 0 -73 -2 -80 -20 -80
-17 0 -20 -7 -20 -45 0 -38 -3 -45 -20 -45 -13 0 -20 -7 -20 -20 0 -13 -7 -20
-20 -20 -13 0 -20 -7 -20 -20 0 -18 -7 -20 -65 -20 -58 0 -65 -2 -65 -20 0
-18 -7 -20 -80 -20 -73 0 -80 -2 -80 -20 0 -17 -7 -20 -45 -20 -38 0 -45 -3
-45 -20 0 -13 -7 -20 -20 -20 -15 0 -20 -7 -20 -25 0 -18 -5 -25 -20 -25 -19
0 -20 -7 -20 -125 0 -118 1 -125 20 -125 13 0 20 -7 20 -20 0 -13 7 -20 20
-20 13 0 20 -7 20 -20 0 -15 7 -20 25 -20 18 0 25 -5 25 -20 0 -18 7 -20 80
-20 73 0 80 -2 80 -20 0 -18 7 -20 65 -20 58 0 65 -2 65 -20 0 -13 7 -20 20
-20 15 0 20 -7 20 -25 0 -18 5 -25 20 -25 13 0 20 -7 20 -20 0 -13 7 -20 20
-20 13 0 20 -7 20 -20 0 -13 7 -20 20 -20 19 0 20 -7 20 -105 l0 -105 25 0 25
0 0 -395 c0 -388 0 -395 20 -395 18 0 20 -7 20 -60 0 -53 2 -60 20 -60 17 0
20 -7 20 -45 0 -38 3 -45 20 -45 13 0 20 -7 20 -20 0 -13 7 -20 20 -20 13 0
20 -7 20 -20 0 -13 7 -20 20 -20 13 0 20 -7 20 -20 0 -15 7 -20 25 -20 18 0
25 -5 25 -20 0 -17 7 -20 40 -20 36 0 40 -2 40 -25 0 -22 4 -25 40 -25 33 0
40 -3 40 -20 0 -18 7 -20 85 -20 78 0 85 -2 85 -20 0 -19 7 -20 125 -20 118 0
125 1 125 20 0 17 7 20 40 20 33 0 40 3 40 20 0 13 7 20 20 20 15 0 20 7 20
25 0 18 5 25 19 25 23 0 31 35 31 131 0 67 -1 69 -25 69 -23 0 -25 4 -25 45 0
38 -3 45 -20 45 -13 0 -20 7 -20 20 0 18 -7 20 -60 20 -53 0 -60 2 -60 20 0
18 -7 20 -85 20 -78 0 -85 2 -85 20 0 17 -7 20 -40 20 l-40 0 0 45 c0 38 -3
45 -20 45 -20 0 -20 7 -20 435 l0 435 -25 0 c-25 0 -25 1 -25 85 0 78 -2 85
-20 85 -17 0 -20 7 -20 40 0 33 -3 40 -20 40 -17 0 -20 7 -20 40 0 33 -3 40
-20 40 -15 0 -20 7 -20 25 0 18 -5 25 -20 25 -13 0 -20 7 -20 20 0 17 -7 20
-45 20 l-45 0 0 40 0 40 45 0 c38 0 45 3 45 20 0 13 7 20 20 20 13 0 20 7 20
20 0 13 7 20 20 20 17 0 20 7 20 45 0 38 3 45 20 45 17 0 20 7 20 40 0 33 3
40 20 40 18 0 20 7 20 85 0 84 0 85 25 85 l25 0 0 435 c0 428 0 435 20 435 17
0 20 7 20 45 l0 45 40 0 c33 0 40 3 40 20 0 18 7 20 85 20 78 0 85 2 85 20 0
17 7 20 40 20 33 0 40 3 40 20 0 17 7 20 39 20 l38 0 -15 -52 c-12 -40 -16
-107 -16 -273 l-1 -220 34 -78 33 -78 -38 -43 c-61 -69 -152 -200 -169 -242
-9 -22 -24 -55 -34 -74 -31 -58 -88 -220 -107 -305 -27 -116 -27 -579 -1 -705
42 -196 133 -406 226 -520 34 -41 61 -77 61 -81 0 -13 167 -147 234 -186 111
-66 249 -130 328 -152 249 -68 315 -82 483 -105 350 -48 890 -45 1220 5 307
47 539 120 752 239 120 66 232 167 326 292 65 86 85 125 134 249 84 213 107
352 107 629 0 174 -3 222 -22 319 -22 107 -61 236 -95 313 -8 18 -26 58 -39
88 -26 58 -112 187 -165 248 -37 43 -38 46 -18 104 22 66 45 224 45 313 0 110
-23 241 -63 360 l-33 100 -53 3 c-203 12 -519 -122 -785 -331 -38 -30 -39 -30
-95 -19 -214 43 -260 47 -616 47 -321 -1 -360 -3 -470 -23 -66 -13 -147 -30
-180 -38 l-60 -16 -26 30 c-14 16 -47 44 -73 62 -27 18 -63 45 -80 61 -35 31
-147 91 -261 140 -111 49 -222 78 -322 85 l-93 7 0 37 c0 66 -11 100 -31 100
-12 0 -19 7 -19 20 0 13 -7 20 -20 20 -15 0 -20 7 -20 25 0 23 -4 25 -40 25
-33 0 -40 3 -40 20 0 19 -7 20 -105 20 -98 0 -105 -1 -105 -20z m344 -347
c-10 -40 -14 -41 -14 -5 0 18 5 32 10 32 6 0 8 -11 4 -27z m2566 -1487 c137
-31 270 -105 356 -198 49 -52 120 -178 144 -254 28 -89 36 -231 21 -363 -31
-267 -129 -445 -311 -567 -49 -33 -247 -102 -355 -124 -355 -72 -1036 -82
-1411 -19 -161 26 -425 103 -464 134 -8 7 -37 25 -65 41 -27 15 -86 65 -132
109 -69 68 -89 96 -123 168 -55 116 -80 220 -87 352 -7 147 11 230 78 360 70
138 178 250 295 305 130 62 209 74 463 66 555 -16 836 -17 1011 -2 208 17 486
14 580 -8z"/>
<path d="M2315 2082 c-36 -23 -88 -80 -112 -125 -14 -25 -18 -56 -18 -152 0
-113 2 -123 27 -167 15 -25 49 -64 74 -87 80 -70 156 -68 235 6 27 25 61 71
76 102 24 49 28 68 28 146 0 78 -4 98 -27 145 -15 30 -48 75 -73 100 -43 42
-48 44 -113 48 -52 2 -73 -1 -97 -16z m107 -129 c40 -36 9 -103 -47 -103 -37
0 -55 20 -55 60 0 56 59 82 102 43z"/>
<path d="M3965 2082 c-36 -23 -88 -80 -112 -125 -14 -25 -18 -56 -18 -152 0
-113 2 -123 27 -167 15 -25 49 -64 74 -87 80 -70 156 -68 235 6 27 25 61 71
76 102 24 49 28 68 28 146 0 78 -4 98 -27 145 -15 30 -48 75 -73 100 -43 42
-48 44 -113 48 -52 2 -73 -1 -97 -16z m107 -129 c40 -36 9 -103 -47 -103 -37
0 -55 20 -55 60 0 56 59 82 102 43z"/>
</g>
</svg>
